<?xml version="1.0" encoding="UTF-8"?>
<svg xmlns="http://www.w3.org/2000/svg" viewBox="0 0 155.42 144.32">
  <g id="Background"/>
  <g id="Graphic_Elements" data-name="Graphic Elements">
    <g>
      <path d="M145.21,72.16c0-37.28-30.22-67.5-67.5-67.5S10.21,34.88,10.21,72.16c0,33.69,24.68,61.62,56.95,66.68v-47.17h-17.14v-19.51h17.14v-14.87c0-16.92,10.08-26.26,25.5-26.26,7.39,0,15.11,1.32,15.11,1.32v16.61h-8.51c-8.38,0-11,5.2-11,10.54v12.66h18.72l-2.99,19.51h-15.73v47.17c32.27-5.06,56.95-32.99,56.95-66.68Z" fill="#e4dad1"/>
      <path d="M103.99,91.67l2.99-19.51h-18.72v-12.66c0-5.34,2.61-10.54,11-10.54h8.51v-16.61s-7.72-1.32-15.11-1.32c-15.42,0-25.5,9.34-25.5,26.26v14.87h-17.14v19.51h17.14v47.17c3.44,.54,6.96,.82,10.55,.82s7.11-.28,10.55-.82v-47.17h15.73Z" fill="#fff"/>
    </g>
  </g>
</svg>