<?xml version="1.0" encoding="utf-8"?>
<!-- Generator: Adobe Illustrator 26.2.1, SVG Export Plug-In . SVG Version: 6.00 Build 0)  -->
<svg version="1.1" id="a" xmlns="http://www.w3.org/2000/svg" xmlns:xlink="http://www.w3.org/1999/xlink" x="0px" y="0px"
	 viewBox="0 0 180 100" style="enable-background:new 0 0 180 100;" xml:space="preserve">
<style type="text/css">
	.st0{fill:#61534B;}
	.st1{fill:#010101;}
</style>
<g>
	<path class="st0" d="M20.9,51.6v11.5h-9V28.5h9v5.5c0.7-2.6,4.1-5.9,8.8-6c0.8-0.1,1.5-0.1,2.3,0c-0.3,1.7-0.9,6.5-1.2,8.2
		C22,35.9,20.9,42.4,20.9,51.6L20.9,51.6z"/>
	<path class="st0" d="M57.6,56.3c4.4,0,7-1.7,9-3.2l4.2,6.5c-4.8,3.3-8.9,4.1-13.4,4.1c-11.6,0-18.7-7-18.7-18s7.4-17.9,17-17.9
		c8.9,0,16,6,16,16.2c0,1.8-0.2,3.8-0.2,3.8H47.6C47.8,53.5,52.2,56.3,57.6,56.3L57.6,56.3z M48,41.1h15.7c-0.5-4.3-3.6-6.6-7.8-6.6
		C52.1,34.5,49.1,36.9,48,41.1z M55.2,12.6l10.2,1.9l-7.3,8.6h-7.4L55.2,12.6L55.2,12.6z"/>
	<path class="st0" d="M75.2,28.5h10.1l8.8,19.8l8.9-19.8h10l-18,35.2h-1.6C93.3,63.7,75.2,28.5,75.2,28.5z"/>
	<path class="st0" d="M124.6,22.3c-2.9,0-5.3-1.7-5.3-4.7c0-2.8,2.4-4.5,5.3-4.5c2.9,0,5.3,1.7,5.3,4.6S127.6,22.3,124.6,22.3
		L124.6,22.3z M120.1,28.5h9.1v34.6h-9.1C120.1,63.1,120.1,28.5,120.1,28.5z"/>
	<path class="st0" d="M135.8,28.5h10.1l8.8,19.8l8.9-19.8h10l-18,35.2h-1.6C153.9,63.7,135.8,28.5,135.8,28.5z"/>
</g>
<g>
	<path class="st0" d="M42.4,76.9c-1.3-0.9-2.9-1.6-4.5-1.6c-1.8,0-3.8,0.7-3.8,2.8c0,4.5,9.6,2.6,9.6,9.1c0,3-2.4,5.2-6.1,5.2
		c-2,0-4-0.5-6.1-2l0.8-1.5c1.7,1.2,3.6,1.8,5.3,1.8c2.7,0,4.3-1.5,4.3-3.6c0-5.1-9.6-3.1-9.6-9.1c0-2.8,2.4-4.5,5.7-4.5
		c2,0,3.6,0.7,4.8,1.5C42.5,75.7,42.4,76.3,42.4,76.9L42.4,76.9z"/>
	<path class="st0" d="M57.8,92.1h-1.9V75.5h-5.3l0.4-1.6h11.8v1.6h-5.1L57.8,92.1L57.8,92.1z"/>
	<path class="st0" d="M78.7,92.4c-5.1,0-7.4-3.5-7.4-9.1v-9.4h1.9v8.9c0,5.1,1.2,8,5.5,8s5.5-2.8,5.5-8v-8.9h1.9v9.5
		C86.1,89,83.8,92.4,78.7,92.4L78.7,92.4z"/>
	<path class="st0" d="M100.5,92.1H96V73.9h4.5c7.7,0,10.9,4,10.9,9.1C111.4,88.1,108.2,92.1,100.5,92.1L100.5,92.1z M100.7,75.5
		h-2.8v15h2.8c6.1,0,8.8-3.3,8.8-7.5C109.4,78.8,106.8,75.5,100.7,75.5L100.7,75.5z"/>
	<path class="st0" d="M120.5,73.9h1.9v18.2h-1.9V73.9z"/>
	<path class="st0" d="M140.8,92.3c-5.2,0-9.3-3.3-9.3-9.4s4.1-9.3,9.3-9.3c5.2,0,9.3,3.3,9.3,9.4C150.1,89,145.9,92.3,140.8,92.3z
		 M140.8,75.3c-4,0-7.3,2.8-7.3,7.7s3.3,7.7,7.3,7.7c4,0,7.3-2.7,7.3-7.7C148.1,78,144.8,75.3,140.8,75.3L140.8,75.3z"/>
</g>
<path class="st1" d="M132.8,7.6C132.8,7.6,132.8,7.6,132.8,7.6"/>
</svg>
