<?xml version="1.0" encoding="UTF-8"?>
<svg id="a" xmlns="http://www.w3.org/2000/svg" viewBox="0 0 180 100">
  <g>
    <path d="M20.89,51.58v11.5H11.87V28.48h9.02v5.46c.75-2.65,4.14-5.88,8.77-6.04,.83-.08,1.49-.08,2.32,0-.33,1.65-.91,6.54-1.24,8.19-8.69-.17-9.85,6.29-9.85,15.48h0Z" fill="#61534b"/>
    <path d="M57.55,56.29c4.39,0,6.95-1.65,9.02-3.23l4.22,6.46c-4.8,3.31-8.94,4.14-13.41,4.14-11.59,0-18.71-6.95-18.71-17.96s7.37-17.88,16.97-17.88c8.94,0,15.98,5.96,15.98,16.22,0,1.82-.17,3.81-.17,3.81h-23.84c.17,5.63,4.55,8.44,9.93,8.44h0Zm-9.6-15.15h15.73c-.5-4.31-3.64-6.62-7.78-6.62-3.81,0-6.79,2.4-7.94,6.62Zm7.29-28.56l10.18,1.9-7.29,8.61h-7.37l4.47-10.51h0Z" fill="#61534b"/>
    <path d="M75.19,28.48h10.1l8.77,19.78,8.86-19.78h10.02l-18.04,35.18h-1.58l-18.13-35.18Z" fill="#61534b"/>
    <path d="M124.6,22.27c-2.9,0-5.3-1.74-5.3-4.72,0-2.81,2.4-4.47,5.3-4.47s5.3,1.65,5.3,4.55-2.32,4.63-5.3,4.63h0Zm-4.55,6.21h9.1V63.08h-9.1V28.48Z" fill="#61534b"/>
    <path d="M135.78,28.48h10.1l8.77,19.78,8.86-19.78h10.02l-18.04,35.18h-1.58l-18.13-35.18Z" fill="#61534b"/>
  </g>
  <g>
    <path d="M42.39,76.91c-1.26-.94-2.87-1.58-4.55-1.58-1.76,0-3.81,.7-3.81,2.79,0,4.52,9.62,2.55,9.62,9.09,0,3.05-2.44,5.22-6.13,5.22-2.02,0-4.05-.5-6.13-1.99l.82-1.46c1.7,1.2,3.64,1.82,5.28,1.82,2.73,0,4.25-1.52,4.25-3.58,0-5.13-9.65-3.11-9.65-9.06,0-2.85,2.4-4.49,5.66-4.49,1.97,0,3.64,.67,4.75,1.5-.03,.58-.09,1.17-.12,1.76h0Z" fill="#61534b"/>
    <path d="M57.84,92.1h-1.91v-16.57h-5.25l.41-1.61h11.84v1.61h-5.1v16.57h0Z" fill="#61534b"/>
    <path d="M78.72,92.42c-5.13,0-7.42-3.49-7.42-9.06v-9.44h1.93v8.86c0,5.1,1.23,8,5.45,8s5.51-2.85,5.51-7.98v-8.88h1.93v9.5c0,5.54-2.29,9-7.42,9h0Z" fill="#61534b"/>
    <path d="M100.5,92.1h-4.55v-18.18h4.55c7.71,0,10.88,4.02,10.88,9.09s-3.17,9.09-10.88,9.09h0Zm.18-16.6h-2.79v14.95h2.79c6.1,0,8.77-3.28,8.77-7.48s-2.67-7.48-8.77-7.48h0Z" fill="#61534b"/>
    <path d="M120.47,73.91h1.93v18.18h-1.93v-18.18Z" fill="#61534b"/>
    <path d="M140.76,92.33c-5.16,0-9.27-3.34-9.27-9.35s4.11-9.33,9.27-9.33,9.3,3.34,9.3,9.35-4.14,9.33-9.3,9.33Zm0-17.04c-4.02,0-7.27,2.76-7.27,7.68s3.26,7.71,7.27,7.71,7.3-2.73,7.3-7.68-3.26-7.71-7.3-7.71h0Z" fill="#61534b"/>
  </g>
  <path d="M132.75,7.58s0,0,0,0" fill="#010101"/>
</svg>