<?xml version="1.0" encoding="UTF-8"?><svg id="a" xmlns="http://www.w3.org/2000/svg" viewBox="0 0 351.02 184.21"><defs><style>.b{fill:#010101;}.c{fill:#61534b;}</style></defs><g><path class="c" d="M19.59,95.53v24.98H0V45.38H19.59v11.86c1.62-5.75,8.99-12.76,19.05-13.12,1.8-.18,3.24-.18,5.03,0-.72,3.59-1.98,14.2-2.7,17.79-18.87-.36-21.39,13.66-21.39,33.61Z"/><path class="c" d="M99.21,105.77c9.53,0,15.1-3.59,19.59-7.01l9.17,14.02c-10.42,7.19-19.41,8.99-29.12,8.99-25.16,0-40.62-15.1-40.62-39s16-38.82,36.85-38.82c19.41,0,34.69,12.94,34.69,35.23,0,3.95-.36,8.27-.36,8.27h-51.76c.36,12.22,9.89,18.33,21.57,18.33Zm-20.85-32.89h34.15c-1.08-9.35-7.91-14.38-16.9-14.38-8.27,0-14.74,5.21-17.25,14.38Zm15.82-62.01l22.11,4.13-15.82,18.69h-16l9.71-22.83Z"/><path class="c" d="M137.5,45.38h21.93l19.05,42.96,19.23-42.96h21.75l-39.18,76.39h-3.42l-39.36-76.39Z"/><path class="c" d="M244.8,31.9c-6.29,0-11.5-3.77-11.5-10.25,0-6.11,5.21-9.71,11.5-9.71s11.5,3.59,11.5,9.89-5.03,10.06-11.5,10.06Zm-9.88,13.48h19.77V120.51h-19.77V45.38Z"/><path class="c" d="M269.07,45.38h21.93l19.05,42.96,19.23-42.96h21.75l-39.18,76.39h-3.42l-39.36-76.39Z"/></g><g><path class="c" d="M66.28,150.53c-2.74-2.04-6.24-3.44-9.87-3.44-3.82,0-8.28,1.53-8.28,6.05,0,9.81,20.89,5.54,20.89,19.74,0,6.62-5.29,11.33-13.31,11.33-4.39,0-8.79-1.08-13.31-4.33l1.78-3.18c3.69,2.61,7.9,3.95,11.46,3.95,5.92,0,9.23-3.31,9.23-7.77,0-11.14-20.95-6.75-20.95-19.68,0-6.18,5.22-9.74,12.29-9.74,4.27,0,7.9,1.46,10.32,3.25-.06,1.27-.19,2.55-.25,3.82Z"/><path class="c" d="M99.83,183.51h-4.14v-35.98h-11.4l.89-3.5h25.72v3.5h-11.08v35.98Z"/><path class="c" d="M145.16,184.21c-11.14,0-16.11-7.58-16.11-19.68v-20.5h4.2v19.23c0,11.08,2.67,17.38,11.84,17.38s11.97-6.18,11.97-17.32v-19.29h4.2v20.63c0,12.03-4.97,19.55-16.11,19.55Z"/><path class="c" d="M192.47,183.51h-9.87v-39.48h9.87c16.75,0,23.62,8.72,23.62,19.74s-6.88,19.74-23.62,19.74Zm.38-36.04h-6.05v32.47h6.05c13.25,0,19.04-7.13,19.04-16.24s-5.79-16.24-19.04-16.24Z"/><path class="c" d="M235.83,144.03h4.2v39.48h-4.2v-39.48Z"/><path class="c" d="M279.89,184.02c-11.21,0-20.12-7.26-20.12-20.31s8.92-20.25,20.12-20.25,20.19,7.26,20.19,20.31-8.98,20.25-20.19,20.25Zm0-37c-8.72,0-15.79,5.99-15.79,16.68s7.07,16.75,15.79,16.75,15.86-5.92,15.86-16.68-7.07-16.75-15.86-16.75Z"/></g><path class="b" d="M262.5,0s.01-.01,0,0"/></svg>