<?xml version="1.0" standalone="no"?>
<!DOCTYPE svg PUBLIC "-//W3C//DTD SVG 20010904//EN"
 "http://www.w3.org/TR/2001/REC-SVG-20010904/DTD/svg10.dtd">
<svg version="1.0" xmlns="http://www.w3.org/2000/svg"
 width="1080.000000pt" height="1080.000000pt" viewBox="0 0 1080.000000 1080.000000"
 preserveAspectRatio="xMidYMid meet">
<metadata>
Created by potrace 1.14, written by Peter Selinger 2001-2017
</metadata>
<g transform="translate(0.000000,1080.000000) scale(0.100000,-0.100000)"
fill="#000000" stroke="none">
<path d="M5128 10795 c-2 -2 -55 -6 -118 -10 -63 -3 -124 -8 -135 -10 -11 -2
-47 -7 -81 -10 -68 -6 -239 -29 -329 -45 -33 -6 -73 -13 -90 -16 -83 -14 -363
-80 -465 -110 -366 -106 -785 -276 -1065 -431 -60 -34 -185 -105 -240 -137
-45 -27 -195 -124 -240 -156 -212 -150 -396 -289 -435 -330 -8 -8 -44 -40 -80
-70 -80 -67 -187 -169 -335 -320 -274 -278 -521 -597 -732 -945 -220 -362
-395 -741 -519 -1125 -24 -73 -100 -338 -109 -376 -8 -36 -57 -259 -60 -275
-2 -9 -6 -34 -9 -55 -6 -37 -14 -84 -22 -129 -2 -11 -7 -40 -10 -65 -3 -25 -7
-56 -10 -70 -3 -23 -9 -69 -19 -165 -26 -254 -27 -851 -1 -1060 2 -16 7 -59
10 -95 4 -36 8 -75 10 -85 3 -19 11 -70 21 -145 3 -19 7 -42 8 -50 2 -8 7 -37
12 -65 6 -39 49 -247 70 -335 102 -444 331 -1007 580 -1430 461 -782 1130
-1455 1894 -1906 80 -48 166 -99 191 -113 25 -15 113 -60 195 -99 83 -40 158
-77 167 -83 45 -24 347 -142 468 -183 164 -55 390 -119 530 -151 85 -20 215
-45 255 -51 28 -3 52 -8 55 -9 3 -2 26 -6 50 -10 25 -3 70 -10 100 -15 30 -5
89 -12 130 -16 41 -3 82 -8 91 -9 140 -26 809 -27 1054 -1 17 2 64 7 105 11
41 4 77 8 80 10 3 1 32 6 65 10 32 3 62 8 65 10 3 1 28 6 55 10 72 10 97 14
125 20 14 2 72 14 130 26 141 29 459 118 622 175 328 114 613 242 888 399 36
21 81 46 100 57 81 47 334 218 455 307 289 216 563 464 799 725 39 43 76 84
81 90 79 85 277 344 387 506 176 261 386 642 468 850 12 30 32 77 44 105 73
162 224 627 261 804 2 9 13 59 24 111 11 52 23 109 25 125 3 17 8 43 12 58 3
16 7 38 9 50 14 97 27 186 30 207 3 14 7 54 10 90 4 36 8 72 10 80 26 101 27
835 1 1045 -2 17 -7 62 -10 100 -4 39 -9 81 -11 95 -2 14 -7 45 -10 70 -14
104 -52 311 -90 480 -38 167 -158 560 -204 665 -5 11 -21 52 -36 90 -58 145
-127 298 -203 445 -107 207 -245 439 -351 590 -53 77 -211 290 -226 306 -5 6
-26 30 -45 54 -191 239 -467 518 -720 728 -137 114 -351 276 -445 338 -33 21
-62 42 -65 45 -6 7 -288 177 -360 216 -94 52 -363 184 -460 226 -184 80 -337
135 -635 227 -166 51 -482 120 -660 145 -27 3 -57 8 -65 10 -8 2 -42 7 -75 10
-33 4 -71 8 -85 10 -14 2 -61 7 -105 10 -44 4 -93 9 -110 12 -33 5 -662 13
-667 8z"/>
</g>
</svg>
